# xmcd
#
# Track frame offsets:
#	150
#	19842
#	34031
#	47429
#	59921
#	74605
#	88957
#	107077
#	116779
#	128788
#	146953
#	157240
#	167275
#	179486
#	194350
#
# Disc length: 2838 seconds
#
# Revision: 2
# Processed by: cddbd v1.5PL3 Copyright (c) Steve Scherf et al.
# Submitted via: EasyCDDAExtractor 6.0.0.1
#
DISCID=e50b140f
DTITLE=Shannon Lawson - The Acoustic Livingroom Session
DYEAR=2004
DGENRE=Bluegrass
TTITLE0=When I Was A Cowboy
TTITLE1=Bad, Bad, Bad
TTITLE2=Smokin' Grass
TTITLE3=What Doesn't Kill You (Jimmy's Song)
TTITLE4=All Because You Said I Do
TTITLE5=Ruby's Got Her Red Dress On
TTITLE6=Redneck Love Gone Bad
TTITLE7=Banjo Queen
TTITLE8=Good Bad Boy
TTITLE9=GoodBye On A Bad Day
TTITLE10=Chase The Sun
TTITLE11=Can't Make Love To Bluegrass
TTITLE12=Heaven Hill
TTITLE13=This Old Heart
TTITLE14=Easy Goin' Woman
EXTD=
EXTT0=
EXTT1=
EXTT2=
EXTT3=
EXTT4=
EXTT5=
EXTT6=
EXTT7=
EXTT8=
EXTT9=
EXTT10=
EXTT11=
EXTT12=
EXTT13=
EXTT14=
PLAYORDER=
